<?xml version="1.0" encoding="UTF-8"?>
<svg version="1.1" xmlns="http://www.w3.org/2000/svg" width="930" height="930">
<path d="M0 0 C1.35313156 0.19571769 2.7063243 0.39101274 4.05957031 0.5859375 C95.90685787 14.00407084 183.38405943 53.79202129 253.16796875 118.38671875 C255.75113869 120.77036108 258.36819248 123.10790961 261 125.4375 C268.84377289 132.48552781 276.39372885 139.91480179 283.23046875 147.94921875 C286.15951156 151.34380478 289.22907705 154.61099128 292.27734375 157.8984375 C296.0495116 162.10079672 299.50456636 166.56781155 303 171 C303.62656494 171.79245117 304.25312988 172.58490234 304.89868164 173.40136719 C315.40801822 186.77210887 324.96344524 200.59668469 334 215 C334.4336084 215.68723145 334.8672168 216.37446289 335.31396484 217.08251953 C352.86877812 245.05705873 366.76228245 274.98798778 378 306 C378.3501416 306.95455078 378.7002832 307.90910156 379.06103516 308.89257812 C389.62566299 337.97435613 396.30742814 368.43052327 400.71289062 399.01501465 C400.98111839 400.86945837 401.25970028 402.72239624 401.5390625 404.57519531 C407.05535827 442.69673933 406.73961728 484.93344408 401 523 C400.80428231 524.35313156 400.60898726 525.7063243 400.4140625 527.05957031 C386.99592916 618.90685787 347.20797871 706.38405943 282.61328125 776.16796875 C280.22963892 778.75113869 277.89209039 781.36819248 275.5625 784 C268.51447219 791.84377289 261.08519821 799.39372885 253.05078125 806.23046875 C249.65619522 809.15951156 246.38900872 812.22907705 243.1015625 815.27734375 C238.89920328 819.0495116 234.43218845 822.50456636 230 826 C229.20754883 826.62656494 228.41509766 827.25312988 227.59863281 827.89868164 C214.22789113 838.40801822 200.40331531 847.96344524 186 857 C185.31276855 857.4336084 184.62553711 857.8672168 183.91748047 858.31396484 C155.94294127 875.86877812 126.01201222 889.76228245 95 901 C94.04544922 901.3501416 93.09089844 901.7002832 92.10742188 902.06103516 C63.02564387 912.62566299 32.56947673 919.30742814 1.98498535 923.71289062 C0.13054163 923.98111839 -1.72239624 924.25970028 -3.57519531 924.5390625 C-41.69673933 930.05535827 -83.93344408 929.73961728 -122 924 C-123.35313156 923.80428231 -124.7063243 923.60898726 -126.05957031 923.4140625 C-217.90685787 909.99592916 -305.38405943 870.20797871 -375.16796875 805.61328125 C-377.75113869 803.22963892 -380.36819248 800.89209039 -383 798.5625 C-390.84377289 791.51447219 -398.39372885 784.08519821 -405.23046875 776.05078125 C-408.15951156 772.65619522 -411.22907705 769.38900872 -414.27734375 766.1015625 C-418.0495116 761.89920328 -421.50456636 757.43218845 -425 753 C-425.93984741 751.81132324 -425.93984741 751.81132324 -426.89868164 750.59863281 C-437.40801822 737.22789113 -446.96344524 723.40331531 -456 709 C-456.4336084 708.31276855 -456.8672168 707.62553711 -457.31396484 706.91748047 C-474.86877812 678.94294127 -488.76228245 649.01201222 -500 618 C-500.3501416 617.04544922 -500.7002832 616.09089844 -501.06103516 615.10742188 C-511.62566299 586.02564387 -518.30742814 555.56947673 -522.71289062 524.98498535 C-522.98111839 523.13054163 -523.25970028 521.27760376 -523.5390625 519.42480469 C-529.05535827 481.30326067 -528.73961728 439.06655592 -523 401 C-522.80428231 399.64686844 -522.60898726 398.2936757 -522.4140625 396.94042969 C-508.99592916 305.09314213 -469.20797871 217.61594057 -404.61328125 147.83203125 C-402.22963892 145.24886131 -399.89209039 142.63180752 -397.5625 140 C-390.51447219 132.15622711 -383.08519821 124.60627115 -375.05078125 117.76953125 C-371.65619522 114.84048844 -368.38900872 111.77092295 -365.1015625 108.72265625 C-360.89920328 104.9504884 -356.43218845 101.49543364 -352 98 C-351.20754883 97.37343506 -350.41509766 96.74687012 -349.59863281 96.10131836 C-336.22789113 85.59198178 -322.40331531 76.03655476 -308 67 C-306.96915283 66.3495874 -306.96915283 66.3495874 -305.91748047 65.68603516 C-277.94294127 48.13122188 -248.01201222 34.23771755 -217 23 C-216.04544922 22.6498584 -215.09089844 22.2997168 -214.10742188 21.93896484 C-185.02564387 11.37433701 -154.56947673 4.69257186 -123.98498535 0.28710938 C-122.13054163 0.01888161 -120.27760376 -0.25970028 -118.42480469 -0.5390625 C-80.30326067 -6.05535827 -38.06655592 -5.73961728 0 0 Z " fill="#98CACB" transform="translate(526,3)"/>
<path d="M0 0 C0 0.66 0 1.32 0 2 C1.65 2.33 3.3 2.66 5 3 C5 3.66 5 4.32 5 5 C5.639375 5.226875 6.27875 5.45375 6.9375 5.6875 C11.13320261 7.48565826 15.03900556 9.73904021 19 12 C19 12.66 19 13.32 19 14 C19.6909375 14.24492187 20.381875 14.48984375 21.09375 14.7421875 C24.47298697 16.20470673 27.44306726 18.09847476 30.5 20.125 C31.73368151 20.9307503 32.96807469 21.73541186 34.203125 22.5390625 C35.14188477 23.15056152 35.14188477 23.15056152 36.09960938 23.77441406 C39.12398861 25.72487446 42.18341626 27.61681197 45.25 29.5 C46.30703125 30.1496875 47.3640625 30.799375 48.453125 31.46875 C50.87639337 32.97052815 50.87639337 32.97052815 53 34 C53 34.66 53 35.32 53 36 C54.175625 36.2784375 54.175625 36.2784375 55.375 36.5625 C59.56352164 38.22346548 62.69284245 40.54453449 66.3203125 43.1796875 C70.33072436 45.90396144 74.60600537 47.97128333 79 50 C79 50.66 79 51.32 79 52 C80.32 52.33 81.64 52.66 83 53 C83 53.66 83 54.32 83 55 C83.71285156 55.25910156 84.42570312 55.51820313 85.16015625 55.78515625 C88.16914548 57.07235797 90.70732071 58.63674345 93.4375 60.4375 C97.2135553 62.88683317 100.91275332 65.12207585 105 67 C105 67.66 105 68.32 105 69 C107.65228812 70.07525194 110.28368454 71.09456151 113 72 C113 72.66 113 73.32 113 74 C115.32927816 75.2542267 117.44624637 76.13015519 120 76.875 C123.28171828 78.10564435 124.59794845 79.52046291 127 82 C128.65816784 82.68753301 130.32459336 83.35561283 132 84 C133 85 134 86 135 87 C136.97620986 88.04622875 138.9737129 89.05439935 141 90 C141 90.66 141 91.32 141 92 C141.9075 92.28875 142.815 92.5775 143.75 92.875 C146.32202908 93.76531776 148.61346766 94.71494413 151 96 C151 96.66 151 97.32 151 98 C151.57105469 98.28101563 152.14210938 98.56203125 152.73046875 98.8515625 C158.94373069 101.99562276 164.96328756 105.53210136 171 109 C171 109.66 171 110.32 171 111 C171.72316406 111.26941406 172.44632813 111.53882813 173.19140625 111.81640625 C175.96634291 112.98581627 178.38188518 114.35083867 180.9375 115.9375 C184.55911068 118.15160877 188.16544372 120.18363124 192 122 C192 122.66 192 123.32 192 124 C192.67675781 124.23589844 193.35351562 124.47179687 194.05078125 124.71484375 C197.70314109 126.30640188 200.8721078 128.36956033 204.1875 130.5625 C208.49165198 133.45493747 208.49165198 133.45493747 213 136 C213 136.66 213 137.32 213 138 C215.31 138.66 217.62 139.32 220 140 C220 140.66 220 141.32 220 142 C220.99 142 221.98 142 223 142 C223 142.66 223 143.32 223 144 C224.98 144.66 226.96 145.32 229 146 C229 146.66 229 147.32 229 148 C229.67804687 148.23589844 230.35609375 148.47179687 231.0546875 148.71484375 C234.69146529 150.30171364 237.830808 152.36752785 241.125 154.5625 C245.82313966 157.73492989 245.82313966 157.73492989 251 160 C251 160.66 251 161.32 251 162 C251.55429687 162.08765625 252.10859375 162.1753125 252.6796875 162.265625 C256.61616975 163.51151501 259.53006481 166.28746878 262.7578125 168.796875 C265.53846301 170.68637727 268.19775636 172.15804023 271.20263672 173.63769531 C272.10150604 174.08187805 273.00037537 174.52606079 273.92648315 174.98370361 C274.61074371 175.31908142 275.29500427 175.65445923 276 176 C276.15051505 223.40706713 276.29554621 270.8141483 276.4332476 318.22125448 C276.44951812 323.82116846 276.46583393 329.42108232 276.48217773 335.02099609 C276.48543066 336.13581367 276.48868358 337.25063125 276.49203508 338.39923118 C276.54477792 356.43785818 276.60118761 374.47647193 276.6589582 392.51508345 C276.71817726 411.03152373 276.77344235 429.54797278 276.82505554 448.06443584 C276.85701425 459.48525856 276.89203779 470.90606337 276.93101191 482.32686435 C276.957461 490.16406199 276.98006105 498.00126492 276.99967117 505.83848263 C277.01108876 510.35657522 277.02416805 514.87464641 277.04183006 519.39271927 C277.05799385 523.53716253 277.06927428 527.68159063 277.07683109 531.82605825 C277.08038401 533.31755456 277.085659 534.8090481 277.09292836 536.30053093 C277.10263177 538.34585209 277.10574225 540.3910923 277.10743046 542.43643379 C277.11084794 543.56724094 277.11426542 544.69804808 277.11778647 545.86312211 C276.9453968 551.91776516 276.43155027 557.95829618 276 564 C75.36 564 -125.28 564 -332 564 C-332 436.29 -332 308.58 -332 177 C-328.535 175.02 -328.535 175.02 -325 173 C-323.76095577 172.21662816 -322.53027456 171.41949916 -321.31640625 170.59765625 C-320.70240967 170.18435059 -320.08841309 169.77104492 -319.45581055 169.34521484 C-318.83101807 168.92191895 -318.20622559 168.49862305 -317.5625 168.0625 C-316.24788601 167.18025874 -314.93278606 166.29874114 -313.6171875 165.41796875 C-312.68277832 164.79220947 -312.68277832 164.79220947 -311.72949219 164.15380859 C-302.50528989 158 -302.50528989 158 -300 158 C-300 157.34 -300 156.68 -300 156 C-297.56866946 154.36136603 -295.15228465 152.85078666 -292.625 151.375 C-291.57699219 150.74464844 -291.57699219 150.74464844 -290.5078125 150.1015625 C-285.27140828 147 -285.27140828 147 -283 147 C-283 146.34 -283 145.68 -283 145 C-281.61743164 143.93774414 -281.61743164 143.93774414 -279.66015625 142.78515625 C-278.93441406 142.35114502 -278.20867187 141.91713379 -277.4609375 141.4699707 C-276.66945313 141.00550537 -275.87796875 140.54104004 -275.0625 140.0625 C-267.69181776 135.66360467 -260.45401063 131.11057393 -253.30883789 126.35375977 C-248.21222767 123 -248.21222767 123 -246 123 C-245.67 122.01 -245.34 121.02 -245 120 C-243.328125 118.97265625 -243.328125 118.97265625 -241.25 118.0625 C-237.71716959 116.41176154 -235.0448287 114.45071579 -232 112 C-229.80930837 110.71434314 -227.58489777 109.50734488 -225.34765625 108.3046875 C-222.37531827 106.6528391 -219.55223203 104.80756257 -216.7265625 102.91796875 C-215 102 -215 102 -212 102 C-211.62875 101.08154297 -211.62875 101.08154297 -211.25 100.14453125 C-209.76192239 97.5915481 -208.62704249 96.97756551 -206 95.6875 C-201.39383352 93.30242998 -197.32031858 90.4495705 -193.1640625 87.35546875 C-191 86 -191 86 -188 86 C-188 85.34 -188 84.68 -188 84 C-185.09451118 81.95830515 -183.59857954 81 -180 81 C-180 80.34 -180 79.68 -180 79 C-178.41455078 77.87426758 -178.41455078 77.87426758 -176.1953125 76.64453125 C-174.98488281 75.96269775 -174.98488281 75.96269775 -173.75 75.26708984 C-172.88375 74.7870752 -172.0175 74.30706055 -171.125 73.8125 C-164.773877 70.22821452 -158.6610332 66.60769978 -152.8125 62.2421875 C-151 61 -151 61 -148 60 C-147.4225 59.401875 -146.845 58.80375 -146.25 58.1875 C-143.99133897 55.99157956 -141.70075801 54.57792173 -138.94140625 53.08203125 C-136.1097269 51.50381157 -133.41362256 49.72362022 -130.69921875 47.953125 C-129 47 -129 47 -127 47 C-127 46.34 -127 45.68 -127 45 C-125.99066406 44.43539062 -124.98132813 43.87078125 -123.94140625 43.2890625 C-119.5504319 40.78151237 -115.35507847 38.0026766 -111.16210938 35.1796875 C-107.54841064 32.80531497 -104.16015593 31.17776104 -100 30 C-100 29.34 -100 28.68 -100 28 C-97.73386842 26.51643919 -95.47508529 25.1509258 -93.125 23.8125 C-87.62913558 20.60695639 -82.35541801 17.25082815 -77.1796875 13.54296875 C-74.59446345 11.71292663 -71.9498725 10.02482228 -69.2421875 8.3828125 C-67.49728158 7.30668585 -65.77816443 6.18870118 -64.0703125 5.0546875 C-45.03101706 -7.31857165 -20.84637309 -10.42318655 0 0 Z " fill="#F0F0F0" transform="translate(487,155)"/>
<path d="M0 0 C3.0831351 1.19899698 6.06279492 2.47700477 9 4 C9 4.66 9 5.32 9 6 C9.53238281 6.11730469 10.06476563 6.23460937 10.61328125 6.35546875 C13.55791245 7.15066376 16.3418079 8.21434164 19.1875 9.3125 C20.25355469 9.72113281 21.31960938 10.12976563 22.41796875 10.55078125 C24.30582707 11.31457126 26.19095412 12.09082665 28.0300293 12.96557617 C34.0252329 15.80915365 39.95120755 17.35599046 46.4375 18.6875 C47.41009766 18.89955078 48.38269531 19.11160156 49.38476562 19.33007812 C55.57431762 20.64075814 61.69196094 21.52800826 68 22 C69.01964844 22.07863281 70.03929687 22.15726563 71.08984375 22.23828125 C79.37079074 22.4541084 87.37636816 21.42247975 95.5625 20.25 C97.2475061 20.01470581 97.2475061 20.01470581 98.96655273 19.7746582 C110.18275343 18.07027963 120.79669718 14.97365299 131 10 C131.82242187 9.608125 132.64484375 9.21625 133.4921875 8.8125 C138.3393955 6.4551952 142.78380818 3.94393448 147.11328125 0.72265625 C149 0 149 0 151.3125 0.55078125 C154.73267778 2.39509223 157.68328821 4.68461888 160.6875 7.125 C161.30761963 7.6207251 161.92773926 8.1164502 162.56665039 8.62719727 C164.381907 10.07973145 166.19113872 11.53951585 168 13 C169.64548368 14.31293833 171.29127474 15.62549161 172.9375 16.9375 C175.83126329 19.25441756 178.71722933 21.58060907 181.59765625 23.9140625 C187.92496038 29.02509954 194.25530998 33.96899984 200.98828125 38.54296875 C203.60239212 40.43629565 205.75434002 42.6901783 208 45 C209.65261839 46.02304948 211.31791365 47.02616054 213 48 C214.01868662 48.98095748 215.02351983 49.97702078 216 51 C216.66 51.33 217.32 51.66 218 52 C218 52.66 218 53.32 218 54 C218.721875 54.226875 219.44375 54.45375 220.1875 54.6875 C223.5711763 56.26654894 225.35827397 58.35827397 228 61 C230.26541466 62.59299476 232.57253015 64.09187057 234.9140625 65.5703125 C236.86045657 66.90435787 238.35802332 68.32005854 240 70 C240.66 70.33 241.32 70.66 242 71 C242 71.66 242 72.32 242 73 C243.65 73.66 245.3 74.32 247 75 C247 75.66 247 76.32 247 77 C247.804375 77.37125 247.804375 77.37125 248.625 77.75 C251.5823982 79.30652537 254.29724051 81.03435673 257 83 C257 83.66 257 84.32 257 85 C258.65 85.66 260.3 86.32 262 87 C262 87.66 262 88.32 262 89 C262.57234375 89.26425781 263.1446875 89.52851562 263.734375 89.80078125 C270.24105165 93.24483251 275.7458492 98.61728919 281.203125 103.49609375 C283.32244666 105.26987383 285.62857891 106.59196873 288 108 C288 108.66 288 109.32 288 110 C288.804375 110.37125 288.804375 110.37125 289.625 110.75 C292.5823982 112.30652537 295.29724051 114.03435673 298 116 C298 116.66 298 117.32 298 118 C298.721875 118.226875 299.44375 118.45375 300.1875 118.6875 C302.91283262 119.95932189 304.32371689 121.25629501 306.33203125 123.43359375 C309.50440876 126.41280542 313.19551789 128.76123627 316.76953125 131.23046875 C317.87361328 132.10638672 317.87361328 132.10638672 319 133 C319 133.66 319 134.32 319 135 C321.475 135.99 321.475 135.99 324 137 C324 137.66 324 138.32 324 139 C324.54140625 139.2475 325.0828125 139.495 325.640625 139.75 C328.5282849 141.27988604 331.09776018 143.09150997 333.75 145 C335.22726562 146.051875 335.22726562 146.051875 336.734375 147.125 C337.85585937 148.053125 337.85585937 148.053125 339 149 C339 149.66 339 150.32 339 151 C339.928125 151.4640625 339.928125 151.4640625 340.875 151.9375 C342.25 152.625 343.625 153.3125 345 154 C345 154.66 345 155.32 345 156 C345.804375 156.37125 345.804375 156.37125 346.625 156.75 C349.5823982 158.30652537 352.29724051 160.03435673 355 162 C355 162.66 355 163.32 355 164 C356.32 164.33 357.64 164.66 359 165 C359 165.66 359 166.32 359 167 C359.721875 167.226875 360.44375 167.45375 361.1875 167.6875 C364.59164459 169.27610081 366.36966663 171.30988632 369 174 C371.37595697 175.82303613 373.77789849 177.60005079 376.20703125 179.3515625 C376.79871094 179.89554688 377.39039063 180.43953125 378 181 C378 181.99 378 182.98 378 184 C178.35 184 -21.3 184 -227 184 C-224.83972097 178.59930244 -224.83972097 178.59930244 -220.89453125 176.21875 C-217.59132193 174.09379885 -214.62088056 171.53808547 -211.5703125 169.0703125 C-209.25500348 167.20539794 -206.91727876 165.37711446 -204.5625 163.5625 C-199.29123306 159.47703652 -194.14857292 155.23832799 -189 151 C-178.59258984 142.43257395 -178.59258984 142.43257395 -173.8125 138.75 C-169.56138944 135.47231011 -165.40679631 132.08318588 -161.25 128.6875 C-155.73590032 124.18673283 -150.16891355 119.77317787 -144.51049805 115.45556641 C-140.50974338 112.40162173 -136.57182986 109.2782811 -132.65234375 106.12109375 C-130.09139706 104.07309073 -127.5120886 102.05091322 -124.92749023 100.03295898 C-119.88637341 96.09524793 -114.89885613 92.11503915 -110 88 C-104.03873361 82.99538246 -97.93716232 78.18935537 -91.79980469 73.40429688 C-80.2590716 64.39964458 -68.79182161 55.31569169 -57.5 46 C-48.48904464 38.56601062 -39.37082305 31.28196823 -30.17993164 24.07226562 C-25.09381527 20.08054215 -20.04140998 16.0480287 -15 12 C-13.22942035 10.58301629 -11.45858778 9.16634855 -9.6875 7.75 C-8.51767578 6.81414063 -8.51767578 6.81414063 -7.32421875 5.859375 C-4.8828125 3.90625 -2.44140625 1.953125 0 0 Z " fill="#F4F5F4" transform="translate(383,534)"/>
<path d="M0 0 C1.03769531 -0.02449219 2.07539063 -0.04898437 3.14453125 -0.07421875 C11.13935439 -0.10446398 16.49375714 1.78640595 23.3762207 5.63330078 C27.24633375 7.94066218 27.24633375 7.94066218 31.5625 7.875 C32.408125 7.38 33.25375 6.885 34.125 6.375 C35.55421131 5.69074439 36.99277673 5.02586509 38.4375 4.375 C39.13488281 4.045 39.83226562 3.715 40.55078125 3.375 C48.05066005 0.46154177 54.9611376 0.01000171 62.9375 0 C63.95392578 -0.02449219 64.97035156 -0.04898437 66.01757812 -0.07421875 C76.2319142 -0.11327931 84.52839756 3.02600293 93.125 8.375 C93.125 9.035 93.125 9.695 93.125 10.375 C93.888125 10.643125 94.65125 10.91125 95.4375 11.1875 C98.02983979 12.33295247 99.42575537 13.13915181 101.125 15.375 C101.125 16.365 101.125 17.355 101.125 18.375 C101.785 18.375 102.445 18.375 103.125 18.375 C105.42148649 20.9364657 106.125 21.85467572 106.125 25.375 C106.785 25.375 107.445 25.375 108.125 25.375 C108.455 27.355 108.785 29.335 109.125 31.375 C109.785 31.375 110.445 31.375 111.125 31.375 C112.60148546 35.31229456 113.42484487 38.95567334 113.78125 43.15234375 C114.09284294 45.55972303 114.09284294 45.55972303 115.140625 48.5 C116.3451476 53.24161279 116.42495588 57.56879098 116.375 62.4375 C116.37040771 63.35764893 116.36581543 64.27779785 116.36108398 65.22583008 C116.1218416 83.3813168 116.1218416 83.3813168 113.125 89.375 C112.465 89.375 111.805 89.375 111.125 89.375 C110.99544922 90.2103125 110.99544922 90.2103125 110.86328125 91.0625 C109.27577273 99.68456461 105.01991831 106.00211535 99.125 112.375 C98.465 112.375 97.805 112.375 97.125 112.375 C97.125 113.035 97.125 113.695 97.125 114.375 C95.2265625 115.8125 95.2265625 115.8125 92.75 117.375 C90.27547838 118.94612484 88.20116959 120.29883041 86.125 122.375 C84.805 122.375 83.485 122.375 82.125 122.375 C82.125 123.035 82.125 123.695 82.125 124.375 C80.56383181 124.71451619 79.00098662 125.04632544 77.4375 125.375 C76.56738281 125.560625 75.69726562 125.74625 74.80078125 125.9375 C72.18401776 126.36535038 69.76992638 126.4060028 67.125 126.375 C67.13023682 127.21796631 67.13547363 128.06093262 67.14086914 128.92944336 C67.15787826 132.04727936 67.17043406 135.16509177 67.17993164 138.28295898 C67.18497057 139.63420386 67.19180177 140.98544326 67.20043945 142.33666992 C67.21252419 144.27520434 67.21769828 146.213778 67.22265625 148.15234375 C67.22789307 149.32015381 67.23312988 150.48796387 67.23852539 151.69116211 C67.125 154.375 67.125 154.375 66.125 155.375 C64.41727642 155.46213831 62.70601351 155.48200007 60.99609375 155.47265625 C60.06466553 155.47015869 59.1332373 155.46766113 58.17358398 155.46508789 C56.98192627 155.45598389 55.79026855 155.44687988 54.5625 155.4375 C50.788125 155.416875 47.01375 155.39625 43.125 155.375 C43.125 145.145 43.125 134.915 43.125 124.375 C37.68 125.365 37.68 125.365 32.125 126.375 C28.77172852 126.61791992 28.77172852 126.61791992 26.00390625 126.60546875 C24.96556641 126.60353516 23.92722656 126.60160156 22.85742188 126.59960938 C21.81134766 126.58736328 20.76527344 126.57511719 19.6875 126.5625 C18.12418945 126.5615332 18.12418945 126.5615332 16.52929688 126.56054688 C-3.80289998 126.44710002 -3.80289998 126.44710002 -5.875 124.375 C-7.30910368 124.12545995 -8.74760072 123.90107358 -10.1875 123.6875 C-16.6753998 122.47630018 -22.12646777 119.5159506 -27.875 116.375 C-27.875 115.715 -27.875 115.055 -27.875 114.375 C-28.75478516 113.99214844 -28.75478516 113.99214844 -29.65234375 113.6015625 C-35.37661126 110.44265214 -39.23925295 104.72946093 -41.26953125 98.625 C-41.46933594 97.8825 -41.66914063 97.14 -41.875 96.375 C-42.39320313 94.55742187 -42.39320313 94.55742187 -42.921875 92.703125 C-45.53643462 82.06279015 -45.31148894 69.76455108 -40.4296875 59.890625 C-37.98047723 55.92758125 -35.2277732 52.60026281 -31.875 49.375 C-31.39160156 48.88257813 -30.90820312 48.39015625 -30.41015625 47.8828125 C-26.40567527 44.13346466 -22.03798012 42.77587686 -16.875 41.375 C-15.86566406 41.08302734 -15.86566406 41.08302734 -14.8359375 40.78515625 C-6.25580266 38.44356567 2.34075248 38.23246679 11.1875 38.3125 C12.62899414 38.31926758 12.62899414 38.31926758 14.09960938 38.32617188 C16.44147422 38.33782294 18.78320181 38.35417975 21.125 38.375 C21.125 36.725 21.125 35.075 21.125 33.375 C20.465 33.375 19.805 33.375 19.125 33.375 C18.28651196 31.91962432 17.45436066 30.46059627 16.625 29 C16.1609375 28.18789063 15.696875 27.37578125 15.21875 26.5390625 C14.125 24.375 14.125 24.375 14.125 22.375 C7.15870323 19.2788681 -1.30997346 19.12485598 -8.4375 21.8125 C-9.571875 22.328125 -10.70625 22.84375 -11.875 23.375 C-12.865 23.705 -13.855 24.035 -14.875 24.375 C-15.535 27.675 -16.195 30.975 -16.875 34.375 C-24.135 34.375 -31.395 34.375 -38.875 34.375 C-38.875 25.375 -38.875 25.375 -36.875 20.875 C-36.50375 20.0190625 -36.1325 19.163125 -35.75 18.28125 C-35.316875 17.33765625 -35.316875 17.33765625 -34.875 16.375 C-34.215 16.375 -33.555 16.375 -32.875 16.375 C-32.79894531 15.80265625 -32.72289062 15.2303125 -32.64453125 14.640625 C-31.60940937 11.59305804 -29.96160134 10.24531869 -27.5625 8.125 C-26.78261719 7.41859375 -26.00273437 6.7121875 -25.19921875 5.984375 C-22.875 4.375 -22.875 4.375 -18.875 4.375 C-18.875 3.715 -18.875 3.055 -18.875 2.375 C-12.57612713 0.14452094 -6.64451655 0.00819299 0 0 Z " fill="#063967" transform="translate(421.875,330.625)"/>
<path d="M0 0 C0.99 0.33 1.98 0.66 3 1 C3 1.66 3 2.32 3 3 C4.01513672 3.35384766 4.01513672 3.35384766 5.05078125 3.71484375 C8.70314109 5.30640188 11.8721078 7.36956033 15.1875 9.5625 C19.49165198 12.45493747 19.49165198 12.45493747 24 15 C24 15.66 24 16.32 24 17 C26.31 17.66 28.62 18.32 31 19 C31 19.66 31 20.32 31 21 C31.99 21 32.98 21 34 21 C34 21.66 34 22.32 34 23 C35.98 23.66 37.96 24.32 40 25 C40 25.66 40 26.32 40 27 C40.67804687 27.23589844 41.35609375 27.47179687 42.0546875 27.71484375 C45.69146529 29.30171364 48.830808 31.36752785 52.125 33.5625 C56.82313966 36.73492989 56.82313966 36.73492989 62 39 C62 39.66 62 40.32 62 41 C62.55429687 41.08765625 63.10859375 41.1753125 63.6796875 41.265625 C67.61616975 42.51151501 70.53006481 45.28746878 73.7578125 47.796875 C76.53846301 49.68637727 79.19775636 51.15804023 82.20263672 52.63769531 C83.10150604 53.08187805 84.00037537 53.52606079 84.92648315 53.98370361 C85.61074371 54.31908142 86.29500427 54.65445923 87 55 C87.15051505 102.40706713 87.29554621 149.8141483 87.4332476 197.22125448 C87.44951812 202.82116846 87.46583393 208.42108232 87.48217773 214.02099609 C87.48543066 215.13581367 87.48868358 216.25063125 87.49203508 217.39923118 C87.54477792 235.43785818 87.60118761 253.47647193 87.6589582 271.51508345 C87.71817726 290.03152373 87.77344235 308.54797278 87.82505554 327.06443584 C87.85701425 338.48525856 87.89203779 349.90606337 87.93101191 361.32686435 C87.957461 369.16406199 87.98006105 377.00126492 87.99967117 384.83848263 C88.01108876 389.35657522 88.02416805 393.87464641 88.04183006 398.39271927 C88.05799385 402.53716253 88.06927428 406.68159063 88.07683109 410.82605825 C88.08038401 412.31755456 88.085659 413.8090481 88.09292836 415.30053093 C88.10263177 417.34585209 88.10574225 419.3910923 88.10743046 421.43643379 C88.11084794 422.56724094 88.11426542 423.69804808 88.11778647 424.86312211 C87.9453968 430.91776516 87.43155027 436.95829618 87 443 C-113.64 443 -314.28 443 -521 443 C-521 315.29 -521 187.58 -521 56 C-518.69 54.68 -516.38 53.36 -514 52 C-512.76095577 51.21662816 -511.53027456 50.41949916 -510.31640625 49.59765625 C-509.39541138 48.97769775 -509.39541138 48.97769775 -508.45581055 48.34521484 C-507.83101807 47.92191895 -507.20622559 47.49862305 -506.5625 47.0625 C-505.24788601 46.18025874 -503.93278606 45.29874114 -502.6171875 44.41796875 C-501.99424805 44.0007959 -501.37130859 43.58362305 -500.72949219 43.15380859 C-491.50528989 37 -491.50528989 37 -489 37 C-489 36.34 -489 35.68 -489 35 C-486.56866946 33.36136603 -484.15228465 31.85078666 -481.625 30.375 C-480.92632812 29.95476562 -480.22765625 29.53453125 -479.5078125 29.1015625 C-474.27140828 26 -474.27140828 26 -472 26 C-472 25.34 -472 24.68 -472 24 C-470.61743164 22.93774414 -470.61743164 22.93774414 -468.66015625 21.78515625 C-467.57154297 21.1341394 -467.57154297 21.1341394 -466.4609375 20.4699707 C-465.66945313 20.00550537 -464.87796875 19.54104004 -464.0625 19.0625 C-456.69181776 14.66360467 -449.45401063 10.11057393 -442.30883789 5.35375977 C-437.21222767 2 -437.21222767 2 -435 2 C-434.28058016 34.54507292 -433.90290637 67.07239788 -433.9375 99.625 C-433.93835602 100.43631378 -433.93921204 101.24762756 -433.94009399 102.08352661 C-433.95140469 112.05570819 -433.9713612 122.02785259 -434 132 C-437.92023775 130.08739303 -440.76607194 127.9399346 -444 125 C-444 124.34 -444 123.68 -444 123 C-444.59458008 122.72833008 -445.18916016 122.45666016 -445.80175781 122.17675781 C-447.95666711 121.02319686 -449.42026751 119.85986744 -451.171875 118.171875 C-451.75050293 117.62184814 -452.32913086 117.07182129 -452.92529297 116.50512695 C-453.52744629 115.92593506 -454.12959961 115.34674316 -454.75 114.75 C-458.6520674 111.04552493 -462.49662 107.45897022 -466.875 104.3125 C-468.421875 103.1678125 -468.421875 103.1678125 -470 102 C-470 101.34 -470 100.68 -470 100 C-470.5775 99.731875 -471.155 99.46375 -471.75 99.1875 C-474.05550043 97.97070811 -476.02056192 96.69666121 -478 95 C-478 94.34 -478 93.68 -478 93 C-478.55558594 92.76410156 -479.11117187 92.52820313 -479.68359375 92.28515625 C-482.56375591 90.6872248 -484.66369076 88.694995 -487.0625 86.4375 C-493.15425126 80.80181568 -499.51600471 75.54910824 -506.0234375 70.3984375 C-507.38311883 69.30686235 -508.69873174 68.16059061 -510 67 C-510 66.34 -510 65.68 -510 65 C-510.86625 64.62875 -510.86625 64.62875 -511.75 64.25 C-514.32939979 62.81700012 -516.06121592 61.21575324 -518 59 C-518 58.34 -518 57.68 -518 57 C-518.66 57 -519.32 57 -520 57 C-520 184.05 -520 311.1 -520 442 C-320.35 442 -120.7 442 85 442 C85 315.28 85 188.56 85 58 C80.32796145 62.08803374 75.72231304 66.15096436 71.1875 70.375 C66.37091868 74.83322086 61.40666862 79.02756574 56.27734375 83.125 C54.02840874 84.90294474 54.02840874 84.90294474 52.31640625 86.75 C51 88 51 88 49 88 C49 88.66 49 89.32 49 90 C47.44759659 91.39325954 45.82970015 92.71380128 44.1875 94 C38.96543842 98.16006201 34.07195055 102.55054302 29.21484375 107.12890625 C27 109 27 109 25 109 C25 109.66 25 110.32 25 111 C23.3203125 112.7265625 23.3203125 112.7265625 21.125 114.625 C20.40570312 115.25664062 19.68640625 115.88828125 18.9453125 116.5390625 C17 118 17 118 15 118 C15 118.66 15 119.32 15 120 C13.42578125 121.5859375 13.42578125 121.5859375 11.3125 123.375 C10.58417969 123.99246094 9.85585938 124.60992187 9.10546875 125.24609375 C8.06326172 126.11427734 8.06326172 126.11427734 7 127 C5.576875 128.2065625 5.576875 128.2065625 4.125 129.4375 C2 131 2 131 0 131 C-0.03096324 120.1875092 -0.05021749 109.37502653 -0.0625 98.5625 C-0.0635033 97.75583641 -0.06450661 96.94917282 -0.06554031 96.11806488 C-0.09558974 70.33469078 0.13071941 44.5720448 0.73217773 18.79516602 C0.75694183 17.66465317 0.78170593 16.53414032 0.80722046 15.36936951 C0.8536697 13.27222297 0.90459548 11.17516887 0.96084595 9.07826233 C0.98093719 8.16701096 1.00102844 7.25575958 1.02172852 6.31689453 C1.04171402 5.52590363 1.06169952 4.73491272 1.08229065 3.91995239 C1.12727757 1.91413622 1.12727757 1.91413622 0 0 Z " fill="#DBDEDE" transform="translate(676,276)"/>
<path d="M0 0 C0.74507813 0.00451172 1.49015625 0.00902344 2.2578125 0.01367188 C4.0885764 0.02540754 5.91929873 0.0433415 7.75 0.0625 C7.75 0.7225 7.75 1.3825 7.75 2.0625 C8.575 2.10375 9.4 2.145 10.25 2.1875 C16.69493497 3.79873374 22.23084132 8.45791395 25.75 14.0625 C26.9385143 17.01425618 27.87246539 20.00559371 28.75 23.0625 C29.10320312 24.03574219 29.45640625 25.00898438 29.8203125 26.01171875 C31.43179879 31.69087139 31.03792615 37.64989131 31 43.5 C31.01160156 45.28374023 31.01160156 45.28374023 31.0234375 47.10351562 C31.00935958 53.44209927 30.64231598 59.00258334 28.75 65.0625 C28.09 65.0625 27.43 65.0625 26.75 65.0625 C26.605625 66.01125 26.46125 66.96 26.3125 67.9375 C25.75 71.0625 25.75 71.0625 24.75 73.0625 C24.09 73.0625 23.43 73.0625 22.75 73.0625 C22.37875 73.92875 22.37875 73.92875 22 74.8125 C20.55606301 77.41158658 19.01478013 79.14086838 16.75 81.0625 C15.76 81.0625 14.77 81.0625 13.75 81.0625 C13.75 81.7225 13.75 82.3825 13.75 83.0625 C10.84451118 85.10419485 9.34857954 86.0625 5.75 86.0625 C5.75 72.5325 5.75 59.0025 5.75 45.0625 C-1.51 45.0625 -8.77 45.0625 -16.25 45.0625 C-16.25 57.2725 -16.25 69.4825 -16.25 82.0625 C-19.88 83.0525 -23.51 84.0425 -27.25 85.0625 C-27.58 85.3925 -27.91 85.7225 -28.25 86.0625 C-42.22056778 88.5772022 -57.69391827 88.29401058 -70.25 81.0625 C-73.3709346 78.3967017 -74.95547014 76.94608957 -76.25 73.0625 C-76.91 73.0625 -77.57 73.0625 -78.25 73.0625 C-80.00307246 68.53084234 -80.4950941 64.78587627 -80.4375 59.9375 C-80.43105469 58.73867188 -80.42460937 57.53984375 -80.41796875 56.3046875 C-80.28261095 53.69196722 -80.02128695 51.54295882 -79.25 49.0625 C-78.59 49.0625 -77.93 49.0625 -77.25 49.0625 C-77.188125 48.505625 -77.12625 47.94875 -77.0625 47.375 C-75.52614137 43.00228698 -72.19148073 40.62338214 -68.3125 38.3125 C-62.14899805 35.79678492 -56.02558369 35.92676761 -49.4765625 35.96484375 C-48.5528183 35.9662587 -47.6290741 35.96767365 -46.67733765 35.96913147 C-43.74319138 35.97470391 -40.80912299 35.98725131 -37.875 36 C-35.87890736 36.00501856 -33.88281351 36.00958085 -31.88671875 36.01367188 C-27.00775876 36.02381103 -22.12896599 36.04339178 -17.25 36.0625 C-17.58 27.1525 -17.91 18.2425 -18.25 9.0625 C-18.91 9.0625 -19.57 9.0625 -20.25 9.0625 C-19.92 7.7425 -19.59 6.4225 -19.25 5.0625 C-16.94 4.4025 -14.63 3.7425 -12.25 3.0625 C-12.25 2.4025 -12.25 1.7425 -12.25 1.0625 C-8.15996141 -0.08732602 -4.21822949 -0.04844256 0 0 Z " fill="#EAECED" transform="translate(482.25,350.9375)"/>
<path d="M0 0 C-1.65 0.33 -3.3 0.66 -5 1 C-5 1.66 -5 2.32 -5 3 C-6.56116819 3.33951619 -8.12401338 3.67132544 -9.6875 4 C-10.99267578 4.2784375 -10.99267578 4.2784375 -12.32421875 4.5625 C-14.94098224 4.99035038 -17.35507362 5.0310028 -20 5 C-19.99476318 5.84296631 -19.98952637 6.68593262 -19.98413086 7.55444336 C-19.96712174 10.67227936 -19.95456594 13.79009177 -19.94506836 16.90795898 C-19.94002943 18.25920386 -19.93319823 19.61044326 -19.92456055 20.96166992 C-19.91247581 22.90020434 -19.90730172 24.838778 -19.90234375 26.77734375 C-19.89710693 27.94515381 -19.89187012 29.11296387 -19.88647461 30.31616211 C-20 33 -20 33 -21 34 C-22.70772358 34.08713831 -24.41898649 34.10700007 -26.12890625 34.09765625 C-27.06033447 34.09515869 -27.9917627 34.09266113 -28.95141602 34.09008789 C-30.73890259 34.07643188 -30.73890259 34.07643188 -32.5625 34.0625 C-36.336875 34.041875 -40.11125 34.02125 -44 34 C-44 23.77 -44 13.54 -44 3 C-47.63 3.33 -51.26 3.66 -55 4 C-55 3.67 -55 3.34 -55 3 C-53.58461283 2.66127487 -52.16762037 2.32925376 -50.75 2 C-49.56664062 1.7215625 -49.56664062 1.7215625 -48.359375 1.4375 C-46 1 -46 1 -42 1 C-42 11.56 -42 22.12 -42 33 C-35.4 33 -28.8 33 -22 33 C-22.01160156 30.91816406 -22.02320313 28.83632813 -22.03515625 26.69140625 C-22.04210735 24.68253702 -22.04902389 22.67366749 -22.05493164 20.66479492 C-22.0599708 19.26504772 -22.06680216 17.8653058 -22.07543945 16.46557617 C-22.0875232 14.45754223 -22.09269807 12.44947043 -22.09765625 10.44140625 C-22.10289307 9.23170166 -22.10812988 8.02199707 -22.11352539 6.77563477 C-22 4 -22 4 -21 3 C-19.14712498 2.92773498 -17.29166122 2.9161878 -15.4375 2.9375 C-14.42558594 2.94652344 -13.41367187 2.95554687 -12.37109375 2.96484375 C-11.58863281 2.97644531 -10.80617188 2.98804688 -10 3 C-10 2.34 -10 1.68 -10 1 C-8.71073008 0.63720544 -7.41846728 0.28503302 -6.125 -0.0625 C-5.40570313 -0.25972656 -4.68640625 -0.45695312 -3.9453125 -0.66015625 C-2 -1 -2 -1 0 0 Z " fill="#788FA5" transform="translate(509,452)"/>
<path d="M0 0 C0.33 0.66 0.66 1.32 1 2 C-1.50123051 6.16871752 -3.49415979 8.98422938 -8 11 C-8.66 10.67 -9.32 10.34 -10 10 C-9.01 9.67 -8.02 9.34 -7 9 C-7 8.34 -7 7.68 -7 7 C-5.37660195 5.29115995 -3.70680947 3.62553283 -2 2 C-1.34 1.34 -0.68 0.68 0 0 Z " fill="#A9B4C0" transform="translate(526,436)"/>
</svg>
